<svg width="87" height="85" viewBox="0 0 87 85" fill="none" xmlns="http://www.w3.org/2000/svg">
<g clip-path="url(#clip0_3_57)">
<g filter="url(#filter0_d_3_57)">
<path d="M78 46C78 63.6731 63.6731 78 46 78C28.3269 78 14 63.6731 14 46C14 28.3269 28.3269 14 46 14C63.6731 14 78 28.3269 78 46Z" fill="#DE6C6C"/>
</g>
<path d="M22.793 50V40.4125H26.68C27.6853 40.4125 28.435 40.6422 28.929 41.1015C29.4273 41.5565 29.6765 42.213 29.6765 43.071C29.6765 43.565 29.5812 43.9875 29.3905 44.3385C29.2042 44.6852 28.9723 44.9538 28.695 45.1445C28.422 45.3352 28.1577 45.4413 27.902 45.463C28.1663 45.4803 28.4155 45.5475 28.6495 45.6645C28.8878 45.7772 29.0828 45.957 29.2345 46.204C29.3862 46.451 29.462 46.7825 29.462 47.1985C29.462 47.5062 29.462 47.8095 29.462 48.1085C29.462 48.4075 29.462 48.713 29.462 49.025C29.462 49.2373 29.4772 49.4345 29.5075 49.6165C29.5422 49.7942 29.592 49.922 29.657 50H27.6355C27.5792 49.9133 27.5337 49.7833 27.499 49.61C27.4643 49.4323 27.447 49.2373 27.447 49.025C27.447 48.7477 27.447 48.4833 27.447 48.232C27.447 47.9763 27.447 47.7098 27.447 47.4325C27.447 47.0555 27.3495 46.7652 27.1545 46.5615C26.9595 46.3535 26.6475 46.2495 26.2185 46.2495H24.2295L24.769 45.606V50H22.793ZM24.769 45.424L24.2295 44.6895H26.2445C26.5045 44.6895 26.7363 44.631 26.94 44.514C27.1437 44.397 27.304 44.2302 27.421 44.0135C27.5423 43.7968 27.603 43.5433 27.603 43.253C27.603 42.8457 27.4795 42.5293 27.2325 42.304C26.9898 42.0787 26.6475 41.966 26.2055 41.966H24.184L24.769 41.3095V45.424ZM31.7358 47.153V45.8205H36.3118L36.1168 46.1585C36.1168 46.1238 36.1168 46.0913 36.1168 46.061C36.1168 46.0263 36.1168 45.9938 36.1168 45.9635C36.1168 45.7165 36.0583 45.4803 35.9413 45.255C35.8243 45.0253 35.6423 44.839 35.3953 44.696C35.1526 44.5487 34.8406 44.475 34.4593 44.475C34.0779 44.475 33.7486 44.5573 33.4713 44.722C33.1983 44.8823 32.9881 45.1142 32.8408 45.4175C32.6978 45.7208 32.6263 46.087 32.6263 46.516C32.6263 46.958 32.6956 47.3372 32.8343 47.6535C32.9773 47.9655 33.1874 48.206 33.4648 48.375C33.7464 48.544 34.0953 48.6285 34.5113 48.6285C34.7799 48.6285 35.0118 48.6047 35.2068 48.557C35.4018 48.505 35.5599 48.44 35.6813 48.362C35.8069 48.284 35.9023 48.1973 35.9673 48.102C36.0323 48.0067 36.0713 47.9135 36.0843 47.8225H38.0733C38.0473 48.1128 37.9476 48.3988 37.7743 48.6805C37.6009 48.9578 37.3604 49.2092 37.0528 49.4345C36.7451 49.6555 36.3703 49.831 35.9283 49.961C35.4906 50.091 34.9901 50.156 34.4268 50.156C33.6641 50.156 32.9989 50.0043 32.4313 49.701C31.8636 49.3933 31.4238 48.9708 31.1118 48.4335C30.7998 47.8918 30.6438 47.2678 30.6438 46.5615C30.6438 45.8465 30.8019 45.2203 31.1183 44.683C31.4389 44.1413 31.8831 43.721 32.4508 43.422C33.0228 43.1187 33.6836 42.967 34.4333 42.967C35.2003 42.967 35.8633 43.1208 36.4223 43.4285C36.9813 43.7318 37.4124 44.1587 37.7158 44.709C38.0191 45.255 38.1708 45.892 38.1708 46.62C38.1708 46.7283 38.1686 46.8323 38.1643 46.932C38.1599 47.0317 38.1534 47.1053 38.1448 47.153H31.7358ZM39.4301 52.8405V43.097H41.4516V52.8405H39.4301ZM43.5836 50.156C43.0376 50.156 42.5371 50.0108 42.0821 49.7205C41.6271 49.4258 41.2631 49.0315 40.9901 48.5375C40.7171 48.0392 40.5806 47.4802 40.5806 46.8605C40.5806 46.8432 40.5806 46.828 40.5806 46.815C40.5806 46.7977 40.5806 46.7782 40.5806 46.7565L41.4516 46.737C41.4516 46.75 41.4516 46.763 41.4516 46.776C41.4516 46.789 41.4516 46.802 41.4516 46.815C41.4516 47.1357 41.5296 47.4173 41.6856 47.66C41.8416 47.8983 42.0431 48.0825 42.2901 48.2125C42.5371 48.3425 42.7949 48.4075 43.0636 48.4075C43.5056 48.4075 43.8891 48.2558 44.2141 47.9525C44.5434 47.6448 44.7081 47.166 44.7081 46.516C44.7081 45.866 44.5456 45.3937 44.2206 45.099C43.8956 44.8 43.5099 44.6505 43.0636 44.6505C42.7949 44.6505 42.5371 44.7155 42.2901 44.8455C42.0431 44.9712 41.8416 45.151 41.6856 45.385C41.5296 45.619 41.4516 45.8985 41.4516 46.2235L40.5806 46.1715C40.5806 45.5475 40.7171 44.9972 40.9901 44.5205C41.2631 44.0395 41.6271 43.6603 42.0821 43.383C42.5371 43.1057 43.0376 42.967 43.5836 42.967C44.1426 42.967 44.6647 43.1057 45.1501 43.383C45.6354 43.656 46.0276 44.0568 46.3266 44.5855C46.6299 45.1142 46.7816 45.7577 46.7816 46.516C46.7816 47.309 46.6342 47.9763 46.3396 48.518C46.0449 49.0597 45.6549 49.4692 45.1696 49.7465C44.6842 50.0195 44.1556 50.156 43.5836 50.156ZM51.4955 50.1495C50.7501 50.1495 50.0936 49.9957 49.526 49.688C48.9583 49.3803 48.5141 48.9578 48.1935 48.4205C47.8771 47.8788 47.719 47.2548 47.719 46.5485C47.719 45.8465 47.8771 45.2268 48.1935 44.6895C48.5141 44.1478 48.9583 43.7275 49.526 43.4285C50.0936 43.1252 50.7501 42.9735 51.4955 42.9735C52.2408 42.9735 52.8973 43.1252 53.465 43.4285C54.0326 43.7275 54.4746 44.1478 54.791 44.6895C55.1116 45.2268 55.272 45.8465 55.272 46.5485C55.272 47.2548 55.1116 47.8788 54.791 48.4205C54.4746 48.9578 54.0326 49.3803 53.465 49.688C52.8973 49.9957 52.2408 50.1495 51.4955 50.1495ZM51.4955 48.5505C51.8465 48.5505 52.152 48.4682 52.412 48.3035C52.672 48.1388 52.8735 47.907 53.0165 47.608C53.1595 47.3047 53.231 46.9515 53.231 46.5485C53.231 46.1455 53.1595 45.7967 53.0165 45.502C52.8735 45.203 52.672 44.9733 52.412 44.813C52.152 44.6527 51.8465 44.5725 51.4955 44.5725C51.1488 44.5725 50.8433 44.6527 50.579 44.813C50.319 44.9733 50.1175 45.203 49.9745 45.502C49.8315 45.7967 49.76 46.1455 49.76 46.5485C49.76 46.9515 49.8315 47.3047 49.9745 47.608C50.1175 47.907 50.319 48.1388 50.579 48.3035C50.8433 48.4682 51.1488 48.5505 51.4955 48.5505ZM56.5306 50V43.097H58.5521V45.476L58.1361 45.216C58.1838 44.891 58.2705 44.592 58.3961 44.319C58.5218 44.046 58.6843 43.8098 58.8836 43.6105C59.083 43.4068 59.3191 43.2487 59.5921 43.136C59.8695 43.0233 60.1858 42.967 60.5411 42.967C60.8185 42.967 61.0351 42.9887 61.1911 43.032C61.3515 43.071 61.4511 43.1013 61.4901 43.123L61.1586 44.93C61.1196 44.9083 61.033 44.8737 60.8986 44.826C60.7643 44.7783 60.591 44.7545 60.3786 44.7545C60.032 44.7545 59.7416 44.813 59.5076 44.93C59.2736 45.047 59.0851 45.203 58.9421 45.398C58.8035 45.5887 58.7038 45.801 58.6431 46.035C58.5825 46.269 58.5521 46.5052 58.5521 46.7435V50H56.5306ZM65.9031 50.143C65.6388 50.143 65.3658 50.1192 65.0841 50.0715C64.8068 50.0282 64.5468 49.9393 64.3041 49.805C64.0658 49.6663 63.873 49.4648 63.7256 49.2005C63.5783 48.9362 63.5046 48.5873 63.5046 48.154C63.5046 48.0587 63.5046 47.9612 63.5046 47.8615C63.5046 47.7618 63.5046 47.6622 63.5046 47.5625V44.657H61.9121V43.097H62.3606C62.6206 43.097 62.8265 43.0862 62.9781 43.0645C63.1341 43.0428 63.249 42.9887 63.3226 42.902C63.4006 42.811 63.4505 42.6702 63.4721 42.4795C63.4938 42.2888 63.5046 42.0267 63.5046 41.693V40.822H65.5261V43.097H67.5346V44.657H65.5261V47.14C65.5261 47.218 65.5261 47.2938 65.5261 47.3675C65.5261 47.4412 65.5261 47.5127 65.5261 47.582C65.5261 47.881 65.5608 48.1237 65.6301 48.31C65.7038 48.4963 65.8836 48.5895 66.1696 48.5895C66.3126 48.5895 66.447 48.5765 66.5726 48.5505C66.7026 48.5245 66.8001 48.4985 66.8651 48.4725V49.987C66.7741 50.026 66.6463 50.0607 66.4816 50.091C66.317 50.1257 66.1241 50.143 65.9031 50.143Z" fill="#FFF8F3"/>
</g>
<defs>
<filter id="filter0_d_3_57" x="10" y="14" width="72" height="72" filterUnits="userSpaceOnUse" color-interpolation-filters="sRGB">
<feFlood flood-opacity="0" result="BackgroundImageFix"/>
<feColorMatrix in="SourceAlpha" type="matrix" values="0 0 0 0 0 0 0 0 0 0 0 0 0 0 0 0 0 0 127 0" result="hardAlpha"/>
<feOffset dy="4"/>
<feGaussianBlur stdDeviation="2"/>
<feComposite in2="hardAlpha" operator="out"/>
<feColorMatrix type="matrix" values="0 0 0 0 0 0 0 0 0 0 0 0 0 0 0 0 0 0 0.25 0"/>
<feBlend mode="normal" in2="BackgroundImageFix" result="effect1_dropShadow_3_57"/>
<feBlend mode="normal" in="SourceGraphic" in2="effect1_dropShadow_3_57" result="shape"/>
</filter>
<clipPath id="clip0_3_57">
<rect width="86.0619" height="84.5217" fill="white" transform="translate(0.00305176 0.0347595)"/>
</clipPath>
</defs>
</svg>
